<?xml version="1.0" standalone="no"?>
<!DOCTYPE svg PUBLIC "-//W3C//DTD SVG 20010904//EN"
 "http://www.w3.org/TR/2001/REC-SVG-20010904/DTD/svg10.dtd">
<svg version="1.0" xmlns="http://www.w3.org/2000/svg"
 width="1200.000000pt" height="1200.000000pt" viewBox="0 0 1200.000000 1200.000000"
 preserveAspectRatio="xMidYMid meet">

<g transform="translate(0.000000,1200.000000) scale(0.100000,-0.100000)"
fill="#000000" stroke="none">
<path d="M1540 7026 c0 -2601 3 -3266 13 -3273 6 -4 842 -8 1855 -8 l1844 0
22 -26 c18 -21 28 -56 45 -170 37 -239 80 -437 122 -564 69 -208 183 -423 299
-568 299 -374 695 -586 1266 -679 l139 -22 1654 -3 1653 -4 -7 28 c-3 15 -112
284 -242 598 -129 314 -351 851 -493 1195 -142 344 -263 637 -270 651 -7 15
-23 32 -37 38 -17 8 -247 11 -778 11 -742 0 -755 0 -775 20 -20 20 -20 33 -20
749 l0 729 23 6 c12 3 359 6 770 6 833 0 789 -4 827 69 10 22 72 167 136 322
64 156 286 696 495 1200 208 505 379 920 379 923 0 10 -2741 6 -2995 -4 -755
-29 -1282 -232 -1633 -629 -261 -296 -414 -671 -487 -1192 -19 -141 -21 -148
-48 -158 -27 -9 -1164 -6 -1195 3 -45 15 -45 11 -38 1443 4 744 4 1627 0 1962
l-7 611 -1259 0 -1258 0 0 -3264z m2056 2800 c12 -17 14 -308 14 -2013 l0
-1993 38 -1 c20 0 485 -2 1032 -4 661 -3 1006 0 1028 6 39 13 38 9 52 213 30
432 101 751 225 1001 70 142 120 213 222 319 223 228 519 357 973 421 266 38
2590 45 2590 8 0 -13 -68 -182 -220 -548 -82 -198 -253 -611 -328 -795 -44
-107 -91 -207 -105 -222 l-25 -28 -839 0 c-656 0 -843 -3 -856 -12 -15 -12
-17 -105 -18 -1191 -1 -904 2 -1181 11 -1192 10 -13 134 -15 856 -17 l844 -3
24 -25 c14 -14 69 -135 131 -285 59 -143 199 -481 311 -752 112 -271 207 -506
210 -523 l7 -30 -544 -2 c-821 -4 -1695 2 -1869 13 -555 35 -909 160 -1162
412 -106 104 -170 195 -243 342 -186 377 -225 696 -225 1848 0 323 -4 587 -8
587 -5 0 -112 -251 -238 -557 -128 -313 -239 -568 -251 -580 l-22 -23 -1606 0
-1605 0 0 2819 0 2820 33 4 c17 2 373 4 790 3 739 -1 759 -2 773 -20z"/>
<path d="M2212 9628 c-9 -9 -12 -600 -12 -2600 0 -2575 0 -2588 20 -2608 20
-20 33 -20 1434 -20 l1415 0 25 23 c18 15 73 139 182 402 260 633 314 766 314
776 0 5 -407 9 -1065 9 l-1066 0 -24 25 -25 24 0 1975 c0 1086 -3 1981 -6
1990 -6 14 -67 16 -593 16 -443 0 -590 -3 -599 -12z"/>
<path d="M7615 7600 c-316 -7 -417 -17 -624 -61 -397 -86 -678 -288 -833 -601
-70 -142 -141 -441 -183 -767 -20 -165 -39 -1250 -32 -1946 4 -451 7 -525 25
-640 38 -241 84 -399 159 -550 61 -122 106 -187 188 -274 170 -181 380 -290
660 -345 236 -47 236 -47 1386 -53 775 -4 1098 -3 1103 5 3 6 -4 39 -17 74
-63 167 -451 1095 -465 1111 -14 16 -70 17 -908 17 l-892 0 -7 73 c-3 39 -5
665 -3 1389 3 1249 4 1318 21 1335 17 17 70 18 891 23 824 5 875 6 894 23 11
10 43 75 72 145 29 70 128 309 220 532 93 223 178 428 188 456 l20 51 -246 6
c-291 8 -1177 6 -1617 -3z"/>
<path d="M11397 727 c-3 -9 -16 -17 -27 -17 -21 0 -27 -14 -11 -24 5 -3 7 -14
5 -24 -4 -13 2 -17 23 -18 35 -1 62 41 39 60 -8 6 -16 18 -18 25 -3 12 -6 12
-11 -2z"/>
<path d="M10989 699 c-201 -16 -172 -25 96 -31 143 -3 262 -4 264 -2 3 3 -2
11 -10 18 -18 17 -217 26 -350 15z"/>
<path d="M10387 664 c-62 -19 -133 -88 -142 -138 -10 -51 1 -85 39 -120 19
-17 37 -42 41 -56 28 -90 124 -125 222 -81 122 56 161 262 67 356 -54 54 -133
68 -227 39z m152 -30 c100 -71 38 -354 -78 -354 -85 0 -94 173 -13 261 l34 39
-35 0 c-40 0 -85 -38 -107 -89 -7 -17 -16 -31 -21 -31 -23 0 4 95 39 134 48
54 134 73 181 40z"/>
<path d="M11450 664 c-15 -17 -5 -34 20 -34 62 0 286 -96 345 -147 112 -98 77
-197 -99 -283 -156 -77 -359 -112 -646 -113 -266 0 -470 37 -622 114 -66 34
-77 23 -18 -20 47 -34 185 -81 330 -112 93 -21 133 -23 360 -24 207 0 272 3
345 18 306 62 475 171 475 306 0 109 -96 193 -298 260 -116 39 -180 51 -192
35z"/>
<path d="M11449 602 c-19 -9 -10 -47 11 -47 24 0 40 26 24 42 -14 14 -13 14
-35 5z"/>
<path d="M11355 569 c-4 -5 -14 -9 -23 -9 -12 0 -17 -8 -17 -29 0 -24 5 -30
25 -33 15 -2 33 5 45 17 l21 20 -23 22 c-12 12 -25 18 -28 12z"/>
<path d="M10762 533 c-16 -31 -62 -183 -62 -206 0 -33 28 -67 54 -67 12 0 33
11 46 25 l23 24 19 -24 c26 -33 51 -31 80 4 l24 28 17 -28 c19 -34 50 -38 70
-9 l14 20 18 -20 c26 -29 50 -25 79 13 17 21 26 26 26 16 0 -18 31 -49 48 -49
6 0 20 10 32 22 l20 22 16 -22 c17 -24 43 -29 62 -10 9 9 15 9 24 0 20 -20 24
-15 52 56 52 131 96 152 74 34 -10 -55 -10 -64 7 -82 25 -27 49 -25 74 6 l21
27 21 -27 c28 -35 71 -35 109 1 15 16 41 35 56 43 16 9 31 25 33 35 3 19 2 19
-16 3 -28 -25 -33 -23 -33 17 0 64 -65 97 -118 59 -12 -8 -34 -39 -48 -67 -25
-49 -40 -66 -56 -67 -3 0 -5 30 -5 66 2 79 -12 96 -63 77 -17 -6 -32 -7 -36
-2 -8 13 -34 11 -34 -3 0 -29 -60 -138 -76 -138 -14 0 -15 6 -8 38 22 103 -5
150 -35 60 -22 -65 -55 -107 -72 -91 -10 10 -7 30 15 102 29 96 30 124 5 129
-12 2 -20 -10 -29 -43 -10 -37 -17 -45 -36 -45 -44 0 -74 -23 -114 -87 -46
-74 -66 -78 -62 -11 2 34 -1 47 -13 51 -8 4 -15 16 -15 27 0 14 -7 20 -23 20
-32 0 -61 -23 -108 -86 -43 -59 -64 -73 -81 -56 -8 8 -3 36 16 97 15 48 26 96
24 108 -4 27 -24 33 -36 10z m198 -111 c0 -24 -42 -105 -57 -110 -19 -5 -16
43 3 81 24 47 54 63 54 29z m218 -8 c3 -26 -40 -99 -58 -99 -19 0 -14 37 12
88 20 40 41 45 46 11z m550 14 c7 -7 12 -27 12 -46 0 -26 -4 -33 -17 -30 -23
4 -48 50 -40 71 7 20 28 22 45 5z m-35 -83 c31 -28 28 -45 -8 -45 -23 0 -35
17 -35 51 0 25 9 24 43 -6z"/>
</g>
</svg>
